<?xml version="1.0" encoding="utf-8"?>
<!-- Generator: Adobe Illustrator 21.0.2, SVG Export Plug-In . SVG Version: 6.00 Build 0)  -->
<svg version="1.1" id="Layer_1" xmlns="http://www.w3.org/2000/svg" xmlns:xlink="http://www.w3.org/1999/xlink" x="0px" y="0px"
	 viewBox="0 0 40 40" style="enable-background:new 0 0 40 40;" xml:space="preserve">
<style type="text/css">
	.st0{fill:#DEDEDE;}
</style>
<path class="st0" d="M36.4,8.7c-0.1-0.1-0.2-0.3-0.3-0.4L36,8.1c-0.3-0.3-0.8-0.5-1.2-0.5c-1.1,0-1.9,0.9-1.9,1.9
	c0,0.6,0.3,1,0.6,1.4c2.1,3.2,3.1,7.2,2.5,11.5C34.9,29.6,29,35.2,21.9,36c-9.8,1.1-18-6.5-18-16c0-6.2,3.5-11.5,8.6-14.3
	c0.5-0.3,1.1-0.4,1.8-0.4c2.1,0,3.8,1.7,3.9,3.8h0v14.4c0,0.3-0.4,0.5-0.7,0.2l-3.1-3.6C14.3,20,14.2,20,14.1,20h-2.8
	c-0.3,0-0.5,0.4-0.3,0.6l6,6.9l2.8,3.2c0.2,0.2,0.4,0.2,0.6,0l3.5-4l5.3-6.1c0.2-0.2,0-0.6-0.3-0.6h-2.8c-0.1,0-0.2,0-0.3,0.1
	l-3.1,3.6c-0.2,0.3-0.7,0.1-0.7-0.2l0-14.4c0,0,0-0.1,0-0.1V8.5c0-0.1,0-0.1,0-0.2c-0.4-3.8-3.7-6.8-7.7-6.8c-1.3,0-2.6,0.3-3.6,0.9
	l0,0C4.3,5.8,0,12.5,0,20.2c0.1,10.4,8.5,19.2,18.9,19.7c11.5,0.6,21-8.6,21-19.9C40,15.8,38.6,11.9,36.4,8.7z"/>
</svg>
